<svg width="144" height="144" viewBox="0 0 144 144" fill="none" xmlns="http://www.w3.org/2000/svg">
<rect width="144" height="144" fill="#C5F0FF"/>
<g filter="url(#filter0_d_14_214)">
<rect x="22" y="16" width="100" height="112" rx="4" fill="#F9C107"/>
</g>
<path d="M34.7461 71.9062C35.1055 71.9531 35.4883 72.0703 35.8945 72.2578C36.3008 72.4453 36.6758 72.7109 37.0195 73.0547C37.3789 73.3984 37.6758 73.8203 37.9102 74.3203C38.1445 74.8047 38.2617 75.3672 38.2617 76.0078C38.2617 76.7891 38.1445 77.4609 37.9102 78.0234C37.6758 78.5859 37.3789 79.0547 37.0195 79.4297C36.6758 79.7891 36.293 80.0781 35.8711 80.2969C35.4648 80.5 35.0664 80.6562 34.6758 80.7656C34.3008 80.875 33.9648 80.9453 33.668 80.9766C33.3711 80.9922 33.1758 81 33.082 81H30.3633V78.9375H32.918C33.7461 78.9375 34.3945 78.6719 34.8633 78.1406C35.332 77.6094 35.5664 76.8984 35.5664 76.0078C35.5664 75.1641 35.3242 74.4531 34.8398 73.875C34.3555 73.2969 33.6445 73.0078 32.707 73.0078H30.3633V71.1094H31.4883C31.832 71.1094 32.1836 71.1016 32.543 71.0859C32.9023 71.0703 33.2383 70.9844 33.5508 70.8281C33.8633 70.6719 34.1133 70.4062 34.3008 70.0312C34.5039 69.6562 34.6055 69.1172 34.6055 68.4141C34.6055 68.1328 34.5664 67.8438 34.4883 67.5469C34.4102 67.2344 34.2539 66.9531 34.0195 66.7031C33.7852 66.4531 33.4492 66.25 33.0117 66.0938C32.5742 65.9375 31.9961 65.8594 31.2773 65.8594H30.3633V63.7266H31.5586C32.293 63.7266 33.0039 63.8125 33.6914 63.9844C34.3789 64.1562 34.9883 64.4297 35.5195 64.8047C36.0508 65.1797 36.4727 65.6719 36.7852 66.2812C37.0977 66.875 37.2539 67.5859 37.2539 68.4141C37.2539 68.8984 37.1758 69.3438 37.0195 69.75C36.8633 70.1406 36.668 70.4844 36.4336 70.7812C36.1992 71.0781 35.9258 71.3281 35.6133 71.5312C35.3164 71.7188 35.0273 71.8438 34.7461 71.9062ZM26.5898 63.7266H29.4023V81H26.5898V63.7266ZM44.3789 77.0156C44.3789 77.7188 44.5195 78.2422 44.8008 78.5859C45.0977 78.9297 45.5195 79.1328 46.0664 79.1953V81.0938C46.0039 81.1094 45.9023 81.1172 45.7617 81.1172C45.2305 81.1172 44.7148 81.0469 44.2148 80.9062C43.7305 80.7656 43.3008 80.5391 42.9258 80.2266C42.5508 79.9141 42.2539 79.5 42.0352 78.9844C41.832 78.4688 41.7305 77.8359 41.7305 77.0859C41.7305 76.3672 41.8789 75.75 42.1758 75.2344C42.4883 74.7031 42.8789 74.2734 43.3477 73.9453C43.832 73.6016 44.3789 73.3516 44.9883 73.1953C45.5977 73.0234 46.2148 72.9375 46.8398 72.9375H47.8711V74.6016H47.3555C47.043 74.6016 46.7148 74.6328 46.3711 74.6953C46.0273 74.7578 45.707 74.875 45.4102 75.0469C45.1133 75.2188 44.8633 75.4688 44.6602 75.7969C44.4727 76.1094 44.3789 76.5156 44.3789 77.0156ZM51.668 77.0859C51.668 77.2109 51.6758 77.3984 51.6914 77.6484C51.707 77.8828 51.7383 78.125 51.7852 78.375C51.832 78.625 51.9023 78.8516 51.9961 79.0547C52.1055 79.2578 52.2461 79.3906 52.418 79.4531L51.668 81.0234C51.4648 81.0234 51.2461 80.9766 51.0117 80.8828C50.793 80.7891 50.5742 80.6562 50.3555 80.4844C50.1523 80.3125 49.9727 80.125 49.8164 79.9219C49.6758 79.7031 49.5664 79.4688 49.4883 79.2188C49.332 79.6094 49.0195 79.9609 48.5508 80.2734C48.0977 80.5703 47.5898 80.7891 47.0273 80.9297V79.1484C47.4023 79.0703 47.7383 78.9219 48.0352 78.7031C48.3477 78.4688 48.6133 78.1953 48.832 77.8828V72.9375C48.832 72.1719 48.793 71.5625 48.7148 71.1094C48.6367 70.6562 48.5039 70.3281 48.3164 70.125C48.1289 69.9062 47.8945 69.7734 47.6133 69.7266C47.3477 69.6641 47.0273 69.6328 46.6523 69.6328C46.3086 69.6328 45.9805 69.6797 45.668 69.7734C45.3711 69.8516 45.0898 69.9531 44.8242 70.0781C44.5742 70.1875 44.3477 70.3125 44.1445 70.4531C43.957 70.5938 43.8164 70.7031 43.7227 70.7812L42.668 69.1641C42.8242 68.9922 43.0586 68.8203 43.3711 68.6484C43.6836 68.4609 44.043 68.2969 44.4492 68.1562C44.8555 68.0156 45.293 67.9062 45.7617 67.8281C46.2461 67.7344 46.7461 67.6875 47.2617 67.6875C47.7305 67.6875 48.1836 67.7344 48.6211 67.8281C49.0742 67.9219 49.4805 68.0781 49.8398 68.2969C50.2148 68.5156 50.5352 68.8125 50.8008 69.1875C51.082 69.5469 51.2773 70 51.3867 70.5469C51.4961 71.0938 51.5664 71.6484 51.5977 72.2109C51.6445 72.7578 51.668 73.3047 51.668 73.8516V76.8984V77.0859ZM64.9336 71.2031C64.6992 70.9219 64.3711 70.6641 63.9492 70.4297C63.543 70.1797 62.9961 70.0312 62.3086 69.9844V67.7344C63.168 67.7812 63.9023 67.9688 64.5117 68.2969C65.1367 68.6094 65.6992 69.0703 66.1992 69.6797L64.9336 71.2031ZM62.3086 78.7734C62.8711 78.7109 63.3477 78.5781 63.7383 78.375C64.1445 78.1562 64.5273 77.9062 64.8867 77.625L65.9414 79.1484C65.457 79.7578 64.9336 80.2266 64.3711 80.5547C63.8086 80.8672 63.1211 81.0469 62.3086 81.0938V78.7734ZM55.7695 74.3906C55.7695 73.5 55.8945 72.6641 56.1445 71.8828C56.4102 71.1016 56.793 70.4141 57.293 69.8203C57.793 69.2266 58.3789 68.75 59.0508 68.3906C59.7383 68.0156 60.5039 67.7969 61.3477 67.7344V70.0078C60.5664 70.1797 59.9414 70.6641 59.4727 71.4609C59.0039 72.2422 58.7695 73.1953 58.7695 74.3203C58.7695 74.8984 58.8242 75.4453 58.9336 75.9609C59.0586 76.4609 59.2305 76.9062 59.4492 77.2969C59.668 77.6875 59.9336 78.0156 60.2461 78.2812C60.5742 78.5469 60.9414 78.7109 61.3477 78.7734V81.0938C60.4883 81.0469 59.7148 80.8438 59.0273 80.4844C58.3398 80.1094 57.7539 79.625 57.2695 79.0312C56.7852 78.4219 56.4102 77.7188 56.1445 76.9219C55.8945 76.125 55.7695 75.2812 55.7695 74.3906ZM75.3867 74.3672L80.6367 81H77.4023L73.5586 75.9375V72.6797L76.8398 67.7812H80.0273L75.3867 74.3672ZM69.7383 81V62.7891H72.5977V81H69.7383ZM97.8164 81H94.9102L90.4336 68.0625L85.9102 81H82.9805L89.0273 63.75H91.8164L97.8164 81ZM91.9805 75.5156L92.6602 77.4141H88.1836L88.8398 75.5156H91.9805ZM103.957 67.7812L104.262 69.1406V76.3125V76.3594V81H101.426V67.7812H103.957ZM105.223 68.3672C105.613 68.1484 106.082 67.9844 106.629 67.875C107.176 67.75 107.918 67.6875 108.855 67.6875V70.6406C108.418 70.5156 107.887 70.4453 107.262 70.4297C106.918 70.4297 106.566 70.4609 106.207 70.5234C105.863 70.5703 105.535 70.6484 105.223 70.7578V68.3672ZM115.652 76.9922C115.652 77.5234 115.723 77.9375 115.863 78.2344C116.004 78.5312 116.199 78.7578 116.449 78.9141C116.715 79.0703 117.004 79.1719 117.316 79.2188C117.645 79.25 117.988 79.2656 118.348 79.2656V81C118.145 81.0312 117.941 81.0547 117.738 81.0703C117.566 81.0859 117.355 81.0938 117.105 81.0938C116.871 81.1094 116.637 81.1172 116.402 81.1172C116.168 81.1172 115.926 81.1094 115.676 81.0938C115.441 81.0781 115.238 81.0547 115.066 81.0234C114.535 80.9297 114.121 80.7031 113.824 80.3438C113.527 79.9688 113.301 79.5625 113.145 79.125C113.004 78.6719 112.91 78.2344 112.863 77.8125C112.832 77.3906 112.816 77.0625 112.816 76.8281V69.7031H111.082V67.7812H112.816V64.0312H115.652V67.7812H117.762V69.7031H115.652V76.9922Z" fill="black"/>
<defs>
<filter id="filter0_d_14_214" x="18" y="13" width="108" height="120" filterUnits="userSpaceOnUse" color-interpolation-filters="sRGB">
<feFlood flood-opacity="0" result="BackgroundImageFix"/>
<feColorMatrix in="SourceAlpha" type="matrix" values="0 0 0 0 0 0 0 0 0 0 0 0 0 0 0 0 0 0 127 0" result="hardAlpha"/>
<feMorphology radius="6" operator="erode" in="SourceAlpha" result="effect1_dropShadow_14_214"/>
<feOffset dy="1"/>
<feGaussianBlur stdDeviation="5"/>
<feComposite in2="hardAlpha" operator="out"/>
<feColorMatrix type="matrix" values="0 0 0 0 0 0 0 0 0 0 0 0 0 0 0 0 0 0 1 0"/>
<feBlend mode="normal" in2="BackgroundImageFix" result="effect1_dropShadow_14_214"/>
<feBlend mode="normal" in="SourceGraphic" in2="effect1_dropShadow_14_214" result="shape"/>
</filter>
</defs>
</svg>
